<svg width="20" height="20" viewBox="0 0 20 20" fill="none" xmlns="http://www.w3.org/2000/svg">
<path fill-rule="evenodd" clip-rule="evenodd" d="M10.6975 13.7131C9.97924 14.0279 9.18564 14.2025 8.35125 14.2025C5.1197 14.2025 2.5 11.5828 2.5 8.35125C2.5 5.1197 5.1197 2.5 8.35125 2.5C11.5828 2.5 14.2025 5.1197 14.2025 8.35125C14.2025 9.47892 13.8835 10.5321 13.3308 11.4254L11.2591 9.3537C10.5796 8.67425 9.47803 8.67425 8.79858 9.3537C8.11913 10.0331 8.11913 11.1348 8.79858 11.8142L10.6975 13.7131ZM12.5539 15.5695C11.3195 16.2898 9.88355 16.7025 8.35125 16.7025C3.73898 16.7025 0 12.9635 0 8.35125C0 3.73898 3.73898 0 8.35125 0C12.9635 0 16.7025 3.73898 16.7025 8.35125C16.7025 10.1711 16.1204 11.855 15.1323 13.2269L18.9353 17.0299C19.6147 17.7094 19.6147 18.811 18.9353 19.4904C18.2558 20.1699 17.1542 20.1699 16.4748 19.4904L12.5539 15.5695Z" fill="white"/>
</svg>
